<svg xmlns="http://www.w3.org/2000/svg" width="100px" height="100px" version="1.1"><defs/>
    <svg width='100%' height='100%' viewBox="0 0 100 100" databind="databindHide">
        <linearGradient id='autoId_horizontalThermostat_rightGrad' x1='0%' y1="0%" x2='100%' y2='100%' gradientUnits='objectBoundingBox'>
            <stop  offset='0%' stop-color="#A9A9A9"/>
            <stop  offset='100%' stop-color="#808080"/>
        </linearGradient>
        <linearGradient id='autoId_horizontalThermostat_frontGrad' x1='-50%' y1="-50%" x2='100%' y2='100%' gradientUnits='objectBoundingBox'>
            <stop  offset='-50%' stop-color="#FFFFFF"/>
            <stop  offset='100%' stop-color="#909090"/>
        </linearGradient>
        <linearGradient id='autoId_horizontalThermostat_screenGrad' x1='-50%' y1='-50%' x2='150%' y2='150%' gradientUnits='objectBoundingBox'>
            <stop  offset='-50%' stop-color='#FFFFFF'/>
            <stop  offset='150%' stop-color='#9ACD32'/>
        </linearGradient>
        <linearGradient id='autoId_horizontalThermostat_screenGrad9' x1='-50%' y1='-50%' x2='150%' y2='150%' gradientUnits='objectBoundingBox'>
            <stop  offset='-50%' stop-color='#FFFFFF'/>
            <stop  offset='150%' stop-color='#ADE8D6'/>
        </linearGradient>
        <linearGradient id='autoId_horizontalThermostat_buttonGrad' x1='-50%' y1='-50%' x2='100%' y2='100%' gradientUnits='objectBoundingBox'>
            <stop  offset='-50%' stop-color="#FFFFFF"/>
            <stop  offset='100%' stop-color="#606060"/>
        </linearGradient>

        <path id="horizontalThermostat_top" d="M 10,20 L15,15 L85,15 L80,20" fill="#E0E0E0" />
        <path id="horizontalThermostat_right" d="M 85,15 A30,30 0 0 1 85,55 L80,60 L80,20Z" style="fill: url('#autoId_horizontalThermostat_rightGrad')"/>
        <path id="horizontalThermostat_front" d="M 10,20 L80,20 A30,30 0 0 1 80,60 L10,60 A30,30 0 0 1 10,20" style="fill: url('#autoId_horizontalThermostat_frontGrad')"/>
        <path id="horizontalThermostat_screen" d="M 15,30 L15,50 L60,50 L60,30 Z" style="fill: url('#autoId_horizontalThermostat_screenGrad');display:none;" stroke="#808080" stroke-width="1"/>
        <path id="_horizontalThermostat_screen" d="M 15,30 L15,50 L60,50 L60,30 Z" style="fill: url('#autoId_horizontalThermostat_screenGrad9');display:block;" stroke="#808080" stroke-width="1"/>
        <svg x="65" y="30"><ellipse cx="7.5" cy="4" rx="7.5" ry="4"  style="fill: url('#autoId_horizontalThermostat_buttonGrad')"/></svg>
        <svg x="65" y="40"><ellipse cx="7.5" cy="4" rx="7.5" ry="4"  style="fill: url('#autoId_horizontalThermostat_buttonGrad')"/></svg>
    </svg>

</svg>