<svg xmlns="http://www.w3.org/2000/svg" width="100px" height="100px" version="1.1"><defs/>
    <svg width='100%' height='100%' viewBox="0 0 100 100" databind="databindHide">
        <linearGradient id='autoId_waterFlowMeter_faceFrameGrad' x1='10%' y1='10%' x2='100%' y2='100%' gradientUnits='objectBoundingBox'>
            <stop  offset='10%' stop-color="#C0C0C0"/>
            <stop  offset='100%' stop-color="#606060"/>
        </linearGradient>
        <linearGradient id='autoId_waterFlowMeter_screenGrad' x1='-50%' y1='-50%' x2='150%' y2='150%' gradientUnits='objectBoundingBox'>
            <stop  offset='-50%' stop-color='#FFFFFF'/>
            <stop  offset='150%' stop-color='#9ACD32'/>
        </linearGradient>
        <linearGradient id='autoId_waterFlowMeter_screenGrad9' x1='-50%' y1='-50%' x2='150%' y2='150%' gradientUnits='objectBoundingBox'>
            <stop  offset='-50%' stop-color='#FFFFFF'/>
            <stop  offset='150%' stop-color='#ADE8D6'/>
        </linearGradient>

        <path id="waterFlowMeter_frameLeft" d="M 20,10 A10,10 0 0 0 15,12 L4,22 L20,20 Z" fill="#D0D0D0" />
        <path id="waterFlowMeter_frameTop" d="M 20,10 L10,20 L70,20 L80,10" fill="#C0C0C0" />
        <path id="waterFlowMeter_frameFace" d="M 80,10 A10,10 0 0 1 90,20 L90,40 A10,10 0 0 1 87,46 L77,57 L70,20" style="fill: url('#autoId_waterFlowMeter_faceFrameGrad')" />
        <path id="waterFlowMeter_frameFront" d="M 10,20 A10,10 0 0 0 0,30 L0,50 A10,10 0 0 0 10,60 L70,60 A10,10 0 0 0 80,50 L80,30 A10,10 0 0 0 70,20" fill="#A0A0A0" />
        <path id="waterFlowMeter_screen" d="M 20,30 L20,50 L65,50 L65,30" style="fill: url('#autoId_waterFlowMeter_screenGrad');display:none;" stroke="#808080" stroke-width="1"/>
        <path id="_waterFlowMeter_screen" d="M 20,30 L20,50 L65,50 L65,30" style="fill: url('#autoId_waterFlowMeter_screenGrad9');display:block;" stroke="#808080" stroke-width="1"/>

    </svg>
</svg>