<?xml version="1.0" standalone="no"?><!DOCTYPE svg PUBLIC "-//W3C//DTD SVG 1.1//EN" "http://www.w3.org/Graphics/SVG/1.1/DTD/svg11.dtd"><svg t="1599818492636" class="icon" viewBox="0 0 1024 1024" version="1.1" xmlns="http://www.w3.org/2000/svg" p-id="5038" xmlns:xlink="http://www.w3.org/1999/xlink" width="200" height="200"><defs><style type="text/css"></style></defs><path d="M588.512 431.184l93.516-315.273c0.672-2.309 0-4.391-0.219-7.621-1.117-1.848-4.68-3.93-7.352-3.93H394.129c-7.793 0-13.137-0.922-16.922 3.93-3.785 6.004-2.672 8.773-0.891 15.012l91.297 307.883c-7.352 5.777-13.813 12.473-19.602 20.098l-303.707-97.008c-2.227-0.695-4.23 0-7.348 0.23-1.781 1.152-3.785 4.848-3.785 7.621v290.789c0 8.086-0.891 13.633 3.785 17.555 5.789 3.93 8.461 2.773 14.473 0.93l295.473-94.242c5.563 8.086 12.469 15.25 20.258 21.25L374.09 912.07c-0.668 2.305 0 4.383 0.223 7.617 1.113 1.852 4.676 3.93 7.348 3.93h280.328c7.797 0 13.141 0.922 16.922-3.93 3.789-6 2.672-8.773 0.891-15.008l-90.844-306.273c7.797-6 14.695-13.164 20.266-21.25l302.594 96.547c2.227 0.695 4.227 0 7.344-0.227 1.781-1.156 3.789-4.852 3.789-7.625V375.059c0-8.082 0.891-13.625-3.789-17.555-5.789-3.926-8.461-2.77-14.469-0.922l-296.586 94.699c-5.791-7.625-12.244-14.32-19.595-20.097z" fill="#D71718" p-id="5039"></path><path d="M528.176 614.805c53.438 0 97.078-45.266 97.078-100.93 0-55.434-43.641-100.707-97.078-100.707-53.664 0-97.313 45.273-97.313 100.707 0 55.664 43.649 100.93 97.313 100.93z" fill="#D71718" p-id="5040"></path></svg>