<?xml version="1.0" standalone="no"?><!DOCTYPE svg PUBLIC "-//W3C//DTD SVG 1.1//EN" "http://www.w3.org/Graphics/SVG/1.1/DTD/svg11.dtd"><svg t="1599818558917" class="icon" viewBox="0 0 1024 1024" version="1.1" xmlns="http://www.w3.org/2000/svg" p-id="7281" xmlns:xlink="http://www.w3.org/1999/xlink" width="200" height="200"><defs><style type="text/css"></style></defs><path d="M392.7 517.6c0-33.4 13.8-63.5 35.9-85.1L183.9 108.8c-7.9-10.5-24.6-5.3-25.1 7.8l-15.9 380.6c-0.4 10.1 3.8 19.8 11.5 26.3l145.1 122.9c9.8 8.3 23.9 8.9 34.4 1.4l82.5-59c-14.9-19.8-23.7-44.5-23.7-71.2zM639 705.2l-65.4-86.1c-18.1 11.1-39.3 17.4-62 17.4-30 0-57.5-11.2-78.4-29.5L104.4 870.4c-10.2 8.2-4.6 24.7 8.6 24.9l380.9 5.1c10.1 0.1 19.6-4.4 25.9-12.3l118.7-148.5c8.1-10 8.2-24.2 0.5-34.4zM886 525.5c-0.4-10.1-5.5-19.4-13.7-25.2l-155-110.1c-10.5-7.4-24.6-6.8-34.4 1.5l-71.7 61.2c12.1 18.6 19.2 40.8 19.2 64.7 0 32.9-13.3 62.6-34.9 84.1L878.1 916c8.8 9.8 24.9 3.2 24.4-10L886 525.5zM910.8 149.3h-381c-10.1 0-19.6 4.7-25.8 12.6L387.4 312c-7.9 10.1-7.8 24.3 0 34.4l57.1 73.1c19.1-13.1 42.2-20.7 67.1-20.7 34.9 0 66.3 15 88 39l320.1-263.6c10.1-8.4 4.2-24.9-8.9-24.9z" p-id="7282" fill="#1296db"></path><path d="M511.5 517.6m-83.9 0a83.9 83.9 0 1 0 167.8 0 83.9 83.9 0 1 0-167.8 0Z" p-id="7283" fill="#1296db"></path></svg>